Coordinates
version=1
nRows=29
nColumns=22
inDegrees=yes

Units are S.I. units (second, meters, Newtons, ...)
If the header above contains a line with 'inDegrees', this indicates whether rotational values are in degrees (yes) or radians (no).

endheader
time	pelvis_tilt	pelvis_list	pelvis_rotation	pelvis_tx	pelvis_ty	pelvis_tz	hip_flexion_r	hip_adduction_r	hip_rotation_r	knee_angle_r	ankle_angle_r	subtalar_angle_r	hip_flexion_l	hip_adduction_l	hip_rotation_l	knee_angle_l	ankle_angle_l	subtalar_angle_l	lumbar_extension	lumbar_bending	lumbar_rotation
      2.72000000	      0.41145002	      0.46364884	    -29.67652129	     -0.70142146	      0.98390300	     -0.26959122	     24.61660427	      3.83247487	    -27.95084416	    -13.10086628	      5.47523184	      4.83768474	    -10.70741733	      5.28480479	     -7.66229843	    -15.28737367	     19.56540976	      0.22088886	    -15.98321125	     -0.16065402	     -4.75861262
      2.73000000	      0.24317674	      0.27574820	    -29.89242523	     -0.69354466	      0.98277551	     -0.26544116	     24.59095580	      4.21590035	    -27.47342212	    -13.59997831	      4.97725445	      3.32832690	    -10.79301167	      5.04009906	     -7.75419025	    -16.10954977	     19.59283789	      0.64156012	    -15.80895352	      0.21818194	     -4.77933337
      2.74000000	      0.03913312	      0.03698457	    -30.12831565	     -0.68557256	      0.98183781	     -0.26121314	     24.61728287	      4.61163564	    -26.91209588	    -14.29020554	      4.46697562	      1.59317644	    -10.81867573	      4.72969196	     -7.84617545	    -17.04525133	     19.52694385	      1.11687901	    -15.62196956	      0.67168324	     -4.76467411
      2.75000000	     -0.19171971	     -0.25125597	    -30.39663073	     -0.67751291	      0.98114085	     -0.25692983	     24.68776982	      5.01348568	    -26.33033645	    -15.14714088	      4.00970187	     -0.14880964	    -10.78452783	      4.36482846	     -7.94271352	    -18.10395325	     19.33455641	      1.65116671	    -15.43591721	      1.19986325	     -4.70745648
      2.76000000	     -0.43707828	     -0.57926471	    -30.70368005	     -0.66938509	      0.98071668	     -0.25258780	     24.78649843	      5.41313937	    -25.75318638	    -16.14148624	      3.66819822	     -1.71008099	    -10.69015322	      3.96085574	     -8.04190955	    -19.29294664	     18.98441460	      2.25888703	    -15.26146021	      1.78174660	     -4.60319625
      2.77000000	     -0.68378098	     -0.93284426	    -31.05288621	     -0.66123343	      0.98058449	     -0.24817574	     24.88992718	      5.80768428	    -25.18204406	    -17.22663257	      3.47687419	     -2.97558422	    -10.53084136	      3.53564555	     -8.13161654	    -20.62119178	     18.44506902	      2.95719777	    -15.10859053	      2.38773422	     -4.44679081
      2.78000000	     -0.91471623	     -1.28999191	    -31.44259669	     -0.65311130	      0.98074073	     -0.24369384	     24.96455289	      6.19291480	    -24.58792661	    -18.33196659	      3.41838592	     -3.93287571	    -10.29210288	      3.11053605	     -8.21757721	    -22.11297626	     17.70599099	      3.76272641	    -14.98943449	      2.98390054	     -4.26884645
      2.79000000	     -1.11792563	     -1.63327783	    -31.86206919	     -0.64505418	      0.98116989	     -0.23913075	     24.98136567	      6.56329963	    -23.99145226	    -19.39365084	      3.46507348	     -4.65427921	     -9.96885710	      2.70020020	     -8.27769845	    -23.76881793	     16.74066041	      4.70715261	    -14.90641448	      3.53852314	     -4.07567219
      2.80000000	     -1.28694427	     -1.94475156	    -32.29911823	     -0.63709274	      0.98183515	     -0.23449164	     24.92018692	      6.91193320	    -23.40817851	    -20.35395785	      3.57743898	     -5.23813931	     -9.55090526	      2.31607811	     -8.30084292	    -25.58701540	     15.54254927	      5.80955910	    -14.85597657	      4.02755941	     -3.88490410
      2.81000000	     -1.42812260	     -2.20871751	    -32.75224902	     -0.62927621	      0.98266967	     -0.22976866	     24.77976435	      7.24349346	    -22.82402769	    -21.16888217	      3.69229475	     -5.76596883	     -9.01742347	      1.95759011	     -8.30758213	    -27.56504851	     14.13715787	      7.03190576	    -14.82283216	      4.43523822	     -3.70541662
      2.82000000	     -1.52399570	     -2.40738663	    -33.15937835	     -0.62158478	      0.98364643	     -0.22503309	     24.55138857	      7.50760357	    -22.33608071	    -21.82958201	      3.85795167	     -6.33481170	     -8.37480762	      1.64487542	     -8.19826592	    -29.67914169	     12.52851227	      8.51016048	    -14.80712630	      4.73803230	     -3.57768159
      2.83000000	     -1.59342624	     -2.55022220	    -33.53121187	     -0.61404202	      0.98468954	     -0.22028637	     24.24924328	      7.73042443	    -21.90636761	    -22.33165095	      4.03672449	     -6.93827680	     -7.61580823	      1.35274946	     -8.02503499	    -31.90975282	     10.81900629	     10.12750248	    -14.79280616	      4.95881036	     -3.50157618
      2.84000000	     -1.64030108	     -2.64085652	    -33.85004595	     -0.60666647	      0.98575542	     -0.21555190	     23.88065708	      7.90996501	    -21.54841002	    -22.67935746	      4.25710166	     -7.57138023	     -6.74073897	      1.07023584	     -7.78320758	    -34.24172122	      9.10513797	     11.84673386	    -14.77680630	      5.10220059	     -3.47024251
      2.85000000	     -1.69422107	     -2.68295482	    -34.11248674	     -0.59948350	      0.98676958	     -0.21086954	     23.49572160	      8.05367344	    -21.26561246	    -22.91300810	      4.43491957	     -8.20558829	     -5.72628672	      0.77247915	     -7.49777180	    -36.66183724	      7.50279464	     13.56149969	    -14.73253504	      5.19600260	     -3.49687833
      2.86000000	     -1.74104635	     -2.71053711	    -34.32486202	     -0.59247946	      0.98774265	     -0.20622175	     23.07328352	      8.18137549	    -21.04140039	    -23.06001092	      4.68350278	     -8.81035107	     -4.62757145	      0.44102790	     -7.17973641	    -39.12905585	      6.11874410	     15.22785538	    -14.69123614	      5.26138629	     -3.55338953
      2.87000000	     -1.77189152	     -2.72565929	    -34.51515148	     -0.58566737	      0.98867493	     -0.20159644	     22.61941796	      8.29478994	    -20.82683171	    -23.15096948	      5.00958711	     -9.36310795	     -3.47341636	      0.08761053	     -6.85633421	    -41.60184742	      5.02282366	     16.77683317	    -14.66491821	      5.29292096	     -3.59297397
      2.88000000	     -1.83090741	     -2.75228154	    -34.66633359	     -0.57905828	      0.98951793	     -0.19700274	     22.16987164	      8.42762592	    -20.66782511	    -23.19460439	      5.30782696	     -9.82901638	     -2.22878675	     -0.35559553	     -6.56060895	    -44.08968768	      4.27392336	     18.02202891	    -14.62140567	      5.34374800	     -3.65471126
      2.89000000	     -1.88702629	     -2.80068471	    -34.82186255	     -0.57266057	      0.99031981	     -0.19237823	     21.70367816	      8.58245522	    -20.52138529	    -23.22503716	      5.62516721	    -10.21476009	     -0.95606058	     -0.87453649	     -6.32977619	    -46.53222108	      3.82925012	     18.98207056	    -14.59893218	      5.39609619	     -3.67672815
      2.90000000	     -1.94518392	     -2.91607503	    -34.98780833	     -0.56644619	      0.99113587	     -0.18768492	     21.17650098	      8.81523473	    -20.35423388	    -23.19833963	      5.91963050	    -10.46776940	      0.30377685	     -1.51628240	     -6.17055319	    -48.89146484	      3.68683647	     19.45355136	    -14.61871313	      5.49819102	     -3.67099861
      2.91000000	     -2.00442494	     -2.98223474	    -35.19544980	     -0.56045313	      0.99188780	     -0.18292739	     20.68875272	      9.03047036	    -20.09750138	    -23.18219894	      6.28026530	    -10.73969094	      1.60810921	     -2.14497540	     -6.03121792	    -51.11183628	      3.68345915	     19.79373874	    -14.60537593	      5.53037901	     -3.58911540
      2.92000000	     -2.02413383	     -3.12821446	    -35.45632775	     -0.55463473	      0.99276651	     -0.17803023	     20.09265881	      9.31838295	    -19.80691190	    -23.11830493	      6.59882555	    -10.89020758	      2.81763752	     -2.88543072	     -6.00341906	    -53.16274064	      3.87500934	     19.67563967	    -14.68435310	      5.59208232	     -3.44886964
      2.93000000	     -2.06987291	     -3.22764750	    -35.76379391	     -0.54901642	      0.99358803	     -0.17307094	     19.54427334	      9.60612262	    -19.43559372	    -23.04202703	      6.92759457	    -11.05728082	      4.07767563	     -3.62707736	     -5.98987183	    -55.03224393	      4.14222914	     19.06696713	    -14.70558986	      5.60955136	     -3.24659838
      2.94000000	     -2.07651798	     -3.36870570	    -36.12899182	     -0.54355609	      0.99455630	     -0.16798490	     18.89569126	      9.94029014	    -18.98159593	    -22.89263962	      7.21204220	    -11.15094930	      5.24414403	     -4.41054928	     -6.00973322	    -56.67479869	      4.50200315	     18.08238327	    -14.79267694	      5.62004400	     -2.97186369
      2.95000000	     -2.05740590	     -3.51120749	    -36.55077222	     -0.53825889	      0.99560428	     -0.16281223	     18.20487235	     10.27715739	    -18.47857259	    -22.71797872	      7.49110885	    -11.21580203	      6.35328856	     -5.20087688	     -6.05905553	    -58.08647648	      4.90855934	     16.75149781	    -14.90776472	      5.59900390	     -2.64799524
      2.96000000	     -2.02460250	     -3.65369274	    -37.02343695	     -0.53310368	      0.99672702	     -0.15757514	     17.46797447	     10.62381978	    -17.91097641	    -22.48611301	      7.73463867	    -11.25632944	      7.41060121	     -5.98243398	     -6.09860716	    -59.25728754	      5.34165292	     15.19946739	    -15.03684720	      5.55904317	     -2.28461171
      2.97000000	     -1.98469668	     -3.79165708	    -37.53963375	     -0.52808595	      0.99790568	     -0.15229159	     16.69457072	     10.97305759	    -17.29172169	    -22.20019964	      7.94072151	    -11.27875881	      8.42106958	     -6.73689753	     -6.09985623	    -60.18281384	      5.76853599	     13.53472304	    -15.17177383	      5.50039385	     -1.87870756
      2.98000000	     -1.94188207	     -3.91855266	    -38.09472718	     -0.52317718	      0.99911541	     -0.14698980	     15.89419061	     11.31138435	    -16.64910813	    -21.86563307	      8.12141041	    -11.28677092	      9.38735355	     -7.44278424	     -6.04464478	    -60.85974484	      6.18056251	     11.84769080	    -15.30446925	      5.42590180	     -1.42812375
      2.99000000	     -1.89922440	     -4.03068386	    -38.68294273	     -0.51836727	      1.00032728	     -0.14169530	     15.07973555	     11.62779509	    -16.00541381	    -21.49767497	      8.30824414	    -11.28374783	     10.31355204	     -8.08492382	     -5.92133205	    -61.29104906	      6.56845243	     10.22522454	    -15.42909435	      5.33852350	     -0.95165520
      3.00000000	     -1.86426489	     -4.12424042	    -39.30220716	     -0.51365011	      1.00151043	     -0.13639192	     14.26169867	     11.92431775	    -15.35052489	    -21.09858403	      8.47865946	    -11.26889838	     11.20449618	     -8.66061556	     -5.72881238	    -61.48161508	      6.92886284	      8.74862880	    -15.53277049	      5.23870329	     -0.45938282
